<svg width="18" height="23" viewBox="0 0 18 23" fill="none" xmlns="http://www.w3.org/2000/svg">
<path d="M16.8069 16.256C16.4858 16.1237 16.1895 15.9353 15.9311 15.6992C15.1917 15.0386 14.7135 14.1233 14.5868 13.126C14.5252 12.6365 14.546 12.1398 14.6481 11.6575C14.7891 11.0193 15.1016 10.4344 15.5502 9.96897C15.8435 9.66809 16.1457 9.37619 16.4259 9.07082C16.5154 8.98798 16.5713 8.87377 16.5826 8.75073C16.594 8.62769 16.5599 8.50475 16.4872 8.40619C16.1664 7.98069 15.7924 7.60022 15.375 7.27452C14.8433 6.863 14.2331 6.57077 13.5841 6.41678C13.1219 6.29967 12.6447 6.25724 12.1697 6.29104C11.3756 6.38935 10.5953 6.58226 9.84462 6.86586C9.26494 7.08641 8.63237 7.11469 8.03618 6.94669C7.32271 6.7095 6.59 6.53817 5.8468 6.43475C5.00668 6.31254 4.14999 6.43612 3.37533 6.79124C2.60067 7.14637 1.93954 7.71862 1.46802 8.44211C1.057 9.0306 0.743368 9.68453 0.539721 10.3776C0.332366 11.0531 0.213104 11.7538 0.18504 12.4613C0.147894 13.3932 0.228847 14.3261 0.425873 15.2366C0.557676 15.8361 0.733323 16.4246 0.951325 16.997C1.43857 18.3618 2.13962 19.6359 3.02687 20.7692C3.49179 21.3846 4.09194 21.8785 4.77838 22.2108C5.21144 22.4173 5.69445 22.4876 6.16645 22.4128C6.665 22.3156 7.15224 22.1651 7.6202 21.9638C7.91869 21.8417 8.22815 21.7499 8.54412 21.6898C9.03977 21.6225 9.54391 21.6764 10.0154 21.847C10.5233 22.0042 11.0138 22.1928 11.5217 22.332C11.8802 22.4398 12.2571 22.4679 12.6271 22.4145C12.9971 22.3611 13.3517 22.2273 13.6673 22.0222C14.4645 21.4748 15.1391 20.76 15.6465 19.925C16.2624 19.0079 16.7475 18.0053 17.0871 16.9476C17.1175 16.884 17.1344 16.8144 17.1365 16.7436C17.1387 16.6727 17.1261 16.6022 17.0996 16.5368C17.073 16.4713 17.0332 16.4124 16.9827 16.364C16.9323 16.3156 16.8723 16.2788 16.8069 16.256Z" fill="#294570"/>
<path d="M8.60505 5.92653L8.87215 5.89959C9.48009 5.87624 10.0704 5.68373 10.5798 5.34269C10.9613 5.06331 11.3058 4.7342 11.6045 4.36364C11.9837 3.91293 12.2804 3.39563 12.4802 2.83668C12.6017 2.42621 12.6766 2.00276 12.7035 1.57469C12.7298 1.3187 12.7298 1.07169 12.7473 0.815701C12.7632 0.724886 12.7561 0.63141 12.7266 0.544225C12.6972 0.45704 12.6464 0.379066 12.5792 0.317769C12.512 0.256473 12.4305 0.213905 12.3426 0.194145C12.2548 0.174385 12.1634 0.178094 12.0774 0.204915C11.6447 0.310414 11.2236 0.460894 10.8207 0.654022C10.202 0.925322 9.65339 1.34045 9.21807 1.86661C8.47971 2.83244 8.06506 4.01693 8.03582 5.24389V5.44599C8.03328 5.51908 8.0472 5.59178 8.07649 5.65846C8.10578 5.72514 8.14965 5.784 8.2047 5.83047C8.25976 5.87695 8.32451 5.90979 8.39394 5.92645C8.46337 5.94311 8.53561 5.94314 8.60505 5.92653Z" fill="#294570"/>
</svg>
