<svg width="28" height="22" viewBox="0 0 28 22" fill="none" xmlns="http://www.w3.org/2000/svg">
<path d="M0 1.2C0 0.537258 0.537259 0 1.2 0H26.3557C27.0184 0 27.5557 0.537258 27.5557 1.2C27.5557 1.86274 27.0184 2.4 26.3557 2.4H1.2C0.537258 2.4 0 1.86274 0 1.2Z" fill="white"/>
<path d="M0 10.8C0 10.1372 0.537259 9.59998 1.2 9.59998H26.3557C27.0184 9.59998 27.5557 10.1372 27.5557 10.8C27.5557 11.4627 27.0184 12 26.3557 12H1.2C0.537258 12 0 11.4627 0 10.8Z" fill="white"/>
<path d="M0 20.4001C0 19.7373 0.537259 19.2001 1.2 19.2001H26.3557C27.0184 19.2001 27.5557 19.7373 27.5557 20.4001C27.5557 21.0628 27.0184 21.6001 26.3557 21.6001H1.2C0.537258 21.6001 0 21.0628 0 20.4001Z" fill="white"/>
</svg>
