<svg width="31" height="23" viewBox="0 0 31 23" fill="none" xmlns="http://www.w3.org/2000/svg">
<path d="M27.2839 11.411C27.2839 11.2936 27.2839 11.1763 27.2839 11.059C27.2798 8.12648 25.1154 5.75337 22.4559 5.75788C21.6499 5.75788 20.8602 5.98346 20.1524 6.41206C19.2154 2.05834 15.2589 -0.630594 11.3146 0.40257C8.02094 1.26429 5.68877 4.49913 5.66831 8.23476C5.66831 8.27988 5.66831 8.32951 5.66831 8.37462C2.1905 9.23635 0.00152868 13.0442 0.783012 16.8791C1.44175 20.1274 4.05624 22.4374 7.07171 22.4419H25.4918C28.3477 22.4419 30.6594 19.8928 30.6635 16.7482C30.6635 14.3661 29.3215 12.2366 27.3003 11.4064L27.2839 11.411ZM11.3555 18.1513C11.3555 18.5393 11.0691 18.8551 10.7173 18.8551C10.3654 18.8551 10.079 18.5393 10.079 18.1513V14.6097C10.079 14.2217 10.3654 13.9059 10.7173 13.9059C11.0691 13.9059 11.3555 14.2217 11.3555 14.6097V18.1513ZM14.1623 18.1513C14.1623 18.5393 13.8759 18.8551 13.5241 18.8551C13.1722 18.8551 12.8858 18.5393 12.8858 18.1513V12.1057C12.8858 11.7177 13.1722 11.4019 13.5241 11.4019C13.8759 11.4019 14.1623 11.7177 14.1623 12.1057V18.1513ZM16.9691 18.1198C16.9691 18.5078 16.6827 18.8236 16.3309 18.8236C15.979 18.8236 15.6926 18.5078 15.6926 18.1198V16.6038C15.6926 16.2158 15.979 15.9 16.3309 15.9C16.6827 15.9 16.9691 16.2158 16.9691 16.6038V18.1198ZM19.7759 18.0431C19.7759 18.4311 19.4895 18.7469 19.1377 18.7469C18.7858 18.7469 18.4994 18.4311 18.4994 18.0431V9.9943C18.4994 9.6063 18.7858 9.29049 19.1377 9.29049C19.4895 9.29049 19.7759 9.6063 19.7759 9.9943V18.0431Z" fill="#294570"/>
</svg>
