<svg width="19" height="21" viewBox="0 0 19 21" fill="none" xmlns="http://www.w3.org/2000/svg">
<path d="M3.63208 0.50258C3.38357 0.346539 3.1008 0.257066 2.80976 0.242387C2.51872 0.227708 2.22875 0.288293 1.96651 0.418573L10.9542 9.65935L13.894 6.63043L3.63208 0.50258ZM1.13828 1.27731C1.02319 1.52839 0.964116 1.80261 0.965351 2.08004V18.9795C0.964872 19.2543 1.02557 19.5257 1.14283 19.7729L10.126 10.5087L1.13828 1.27731ZM10.9542 11.3675L1.98016 20.6129C2.21431 20.7227 2.46906 20.7784 2.72649 20.7763C3.04668 20.7796 3.36158 20.6924 3.63663 20.5243L13.894 14.3871L10.9542 11.3675ZM17.7803 8.96862L14.9407 7.24181L11.7824 10.5087L14.9452 13.7757L17.8031 12.0675C18.0611 11.9064 18.2743 11.6798 18.4223 11.4097C18.5702 11.1395 18.6479 10.8349 18.6479 10.5251C18.6479 10.2153 18.5702 9.91063 18.4223 9.6405C18.2743 9.37037 18.0611 9.14382 17.8031 8.98262L17.7803 8.96862Z" fill="#294570"/>
</svg>
